<svg id="logo" xmlns="http://www.w3.org/2000/svg" width="133.597" height="32" viewBox="0 0 133.597 32">
  <path id="Path_1" data-name="Path 1" d="M17.8,12.606a5.863,5.863,0,0,0,4.564-5.733C22.368,2.8,18.558.2,12.561.2H0V26.637H13.052c6.224,0,10.184-2.829,10.184-7.355A6.528,6.528,0,0,0,17.8,12.606M6.9,5.59h5.281c1.923-.037,3.093.905,3.093,2.49,0,1.659-1.169,2.64-3.093,2.64H6.9Zm5.281,15.691H6.9V15.736h5.281c2.414-.037,3.923,1.019,3.923,2.678,0,1.811-1.509,2.867-3.923,2.867" transform="translate(0 -0.008)" fill="#fff"/>
  <path id="Path_2" data-name="Path 2" d="M28.129,27.484l0,0H31.5v5.368l6.776-5.368H54.636l0,0V21.508H28.129Z" transform="translate(-1.12 -0.857)" fill="#fff"/>
  <rect id="Rectangle_1" data-name="Rectangle 1" width="21.819" height="5.862" transform="translate(26.989 10.496)" fill="#fff"/>
  <rect id="Rectangle_2" data-name="Rectangle 2" width="26.512" height="5.975" transform="translate(27.009 0.188)" fill="#fff"/>
  <path id="Path_3" data-name="Path 3" d="M71.532.2H60.141V26.637H71.268C79.83,26.637,85.6,21.281,85.6,13.4,85.6,5.552,79.906.2,71.532.2m.188,20.859H67.044V5.816h4.337c4.187,0,7.167,3.094,7.167,7.657,0,4.526-2.829,7.582-6.827,7.582" transform="translate(-2.395 -0.008)" fill="#fff"/>
  <rect id="Rectangle_3" data-name="Rectangle 3" width="6.903" height="26.441" transform="translate(86.637 0.189)" fill="#fff"/>
  <path id="Path_4" data-name="Path 4" d="M115.555,5.846a10.7,10.7,0,0,1,6.979,2.9l3.922-4.828A17,17,0,0,0,115.592,0C107.219,0,101,5.733,101,13.428s6.073,13.5,14.145,13.5a21.18,21.18,0,0,0,11.014-3.4V12.21h-8.739v5.23h2.78V19.8a10.809,10.809,0,0,1-4.565,1.244,7.419,7.419,0,0,1-7.543-7.619,7.371,7.371,0,0,1,7.468-7.582" transform="translate(-4.023)" fill="#fff"/>
  <rect id="Rectangle_4" data-name="Rectangle 4" width="6.903" height="26.441" transform="translate(126.695 0.189)" fill="#fff"/>
</svg>
