<?xml version="1.0" encoding="utf-8"?>
<!-- Generator: Adobe Illustrator 19.0.0, SVG Export Plug-In . SVG Version: 6.00 Build 0)  -->
<svg version="1.1" id="Layer_1" xmlns="http://www.w3.org/2000/svg" xmlns:xlink="http://www.w3.org/1999/xlink" x="0px" y="0px"
	 viewBox="0 0 512 512" style="enable-background:new 0 0 512 512;" xml:space="preserve">
<style type="text/css">
	.st0{fill:#2A5F9E;}
	.st1{fill:#FFCE31;}
</style>
<g id="XMLID_2_">
	<circle id="XMLID_4_" class="st0" cx="256" cy="256" r="256"/>
	<polygon id="XMLID_5_" class="st1" points="256,83.5 262.3,102.4 282,102.4 266.2,114.2 272.5,133.1 256,121.3 239.5,133.1 
		245.8,114.2 230.8,102.4 249.7,102.4 	"/>
	<polygon id="XMLID_6_" class="st1" points="256,373.4 262.3,392.3 282,392.3 266.2,403.3 272.5,423 256,411.2 239.5,423 
		245.8,403.3 230.8,392.3 249.7,392.3 	"/>
	<polygon id="XMLID_7_" class="st1" points="327.7,349.7 334,368.6 354.5,368.6 337.9,380.5 344.2,399.4 327.7,387.5 311.1,399.4 
		318.2,380.5 301.7,368.6 321.4,368.6 	"/>
	<polygon id="XMLID_8_" class="st1" points="377.3,300.1 382.8,319 403.3,319 387.5,330.8 393.1,349.7 377.3,337.9 360.8,349.7 
		367.9,330.8 351.3,319 371,319 	"/>
	<polygon id="XMLID_9_" class="st1" points="400.9,228.4 407.2,247.3 426.9,247.3 410.4,259.2 416.7,278.1 400.9,266.2 385.2,278.1 
		390.7,259.2 374.9,247.3 393.8,247.3 	"/>
	<polygon id="XMLID_10_" class="st1" points="377.3,156 382.8,175.7 403.3,175.7 387.5,186.7 393.1,205.6 377.3,194.6 360.8,205.6 
		367.9,186.7 351.3,175.7 371,175.7 	"/>
	<polygon id="XMLID_11_" class="st1" points="327.7,106.3 334,126 354.5,126 337.9,137.1 344.2,156 327.7,144.9 311.1,156 
		318.2,137.1 301.7,126 321.4,126 	"/>
	<polygon id="XMLID_12_" class="st1" points="184.3,349.7 178,368.6 157.5,368.6 174.1,380.5 167.8,399.4 184.3,387.5 200.9,399.4 
		193.8,380.5 210.3,368.6 190.6,368.6 	"/>
	<polygon id="XMLID_13_" class="st1" points="134.7,300.1 129.2,319 108.7,319 124.5,330.8 118.9,349.7 134.7,337.9 151.2,349.7 
		144.1,330.8 160.7,319 141,319 	"/>
	<polygon id="XMLID_14_" class="st1" points="111.1,228.4 104.8,247.3 85.1,247.3 101.6,259.2 95.3,278.1 111.1,266.2 126.8,278.1 
		121.3,259.2 137.1,247.3 118.2,247.3 	"/>
	<polygon id="XMLID_15_" class="st1" points="134.7,156 129.2,175.7 108.7,175.7 124.5,186.7 118.9,205.6 134.7,194.6 151.2,205.6 
		144.1,186.7 160.7,175.7 141,175.7 	"/>
	<polygon id="XMLID_16_" class="st1" points="184.3,106.3 178,126 157.5,126 174.1,137.1 167.8,156 184.3,144.9 200.9,156 
		193.8,137.1 210.3,126 190.6,126 	"/>
</g>
</svg>
