<svg id="test" width="49" height="49" viewBox="0 0 49 49" fill="none" xmlns="http://www.w3.org/2000/svg"><rect x="0.226318" y="24.891" width="33.9411" height="33.9411" rx="16.9706" transform="rotate(-45 0.226318 24.891)" fill="#00AD9F"></rect> <path d="M31.2577 29.3806C31.4686 29.3806 31.6796 29.4861 31.8553 29.6267C31.996 29.8025 32.1014 30.0135 32.1014 30.2244V31.9119C32.1014 32.158 31.996 32.3689 31.8553 32.5096C31.6796 32.6853 31.4686 32.7556 31.2577 32.7556H28.41C28.1991 32.7556 27.9882 32.7205 27.8124 32.615C27.6366 32.5096 27.496 32.3689 27.3905 32.158L23.2069 24.4588L19.8671 32.2283C19.7967 32.4041 19.6913 32.5447 19.5507 32.615C19.41 32.7205 19.2342 32.7556 19.0936 32.7556H17.2303C16.9139 32.7556 16.6678 32.6502 16.5272 32.3689C16.3514 32.1228 16.3163 31.8767 16.4569 31.5955L21.1327 20.6619L20.9921 20.3806H17.1952C16.9491 20.3806 16.7382 20.3103 16.5975 20.1346C16.4217 19.9939 16.3514 19.783 16.3514 19.5369V17.8494C16.3514 17.6385 16.4217 17.4275 16.5975 17.2517C16.7382 17.1111 16.9491 17.0056 17.1952 17.0056H22.2928C22.5038 17.0056 22.6796 17.076 22.8553 17.1814C23.0311 17.2869 23.1717 17.4275 23.3124 17.6033L29.746 29.3806H31.2577Z" fill="white"></path></svg>