<svg version="1.1" xmlns="http://www.w3.org/2000/svg" xmlns:xlink="http://www.w3.org/1999/xlink" x="0px" y="0px" viewBox="0 0 1000 1000" enable-background="new 0 0 1000 1000" xml:space="preserve">
<g><path  fill="#e8ebe4" d="M650.7,264.9H236c-13.3,0-24-10.8-24-24s10.8-24,24-24h414.7c13.3,0,24,10.8,24,24S664,264.9,650.7,264.9z"/><path  fill="#e8ebe4" d="M598.6,402.4H236c-13.3,0-24-10.8-24-24c0-13.3,10.8-24,24-24h362.6c13.3,0,24,10.8,24,24C622.7,391.7,611.9,402.4,598.6,402.4z"/><path  fill="#e8ebe4" d="M730.9,536.7H236c-13.3,0-24-10.8-24-24c0-13.3,10.8-24,24-24h494.9c13.3,0,24,10.8,24,24C754.9,525.9,744.1,536.7,730.9,536.7z"/><path  fill="#e8ebe4" d="M686.2,990H167.3c-40.2,0-72.9-32.7-72.9-72.9V82.9c0-40.2,32.7-72.9,72.9-72.9h665.4c40.2,0,72.9,32.7,72.9,72.9v677.8L686.2,990z M167.3,58.1c-13.7,0-24.8,11.1-24.8,24.8v834.3c0,13.7,11.1,24.8,24.8,24.8h498.3l191.8-200.5V82.9c0-13.7-11.1-24.8-24.8-24.8H167.3z"/><path  fill="#e8ebe4" d="M675.9,990c-3,0-6.1-0.6-9-1.7c-9.1-3.7-15.1-12.5-15.1-22.3V799.9c0-40.2,32.7-72.9,72.9-72.9h156.8c9.6,0,18.3,5.7,22.1,14.6c3.8,8.9,1.9,19.1-4.7,26.1L693.3,982.6C688.6,987.4,682.3,990,675.9,990z M724.7,775.1c-13.7,0-24.8,11.1-24.8,24.8V906l125.3-131H724.7z"/></g>
</svg>