<svg xmlns="http://www.w3.org/2000/svg" width="162" height="25"><g fill="none"><path fill="#FFF" d="M14.26 16.87c-.04-1.7-.84-2.5-3.72-2.5H7.7v5.38c.75.03 1.3.03 2.14.03 3.1 0 4.42-.44 4.42-2.56v-.35zm-.07-9.29c0-1.95-1.4-2.27-4.36-2.27-.76 0-1.35 0-2.15.04v4.96h2.77c3.06 0 3.72-.82 3.72-2.5v-.2zM8.94 24.3H0V.82h9.02c8.23 0 12.82.98 12.82 6.42v.28c0 2.02-.8 3.8-2.82 4.77 2.23.94 2.96 2.93 2.96 4.67v.32c0 6.1-5.18 7-13.03 7zm27.34 0H44V.8h-7.7zm-11.26 0h7.7V10.27h-7.7zm35.58 0l-5.45-8.43v8.43H47.5V.8h7.67v12.97l5.62-8.2h7.94L62.4 14.6l6.66 9.7zm21.1-7.97h-1.65c-2.17 0-3.17.23-3.17 2.04v.68c0 1.26.75 1.62 1.86 1.62 1.2 0 2.38-.42 2.95-.68v-3.67zm.38 7.97v-1.2c-1.4.84-3.84 1.68-6.48 1.68-3.88 0-6-1.88-6-5.34v-.78c0-5.05 4.47-5.5 10.38-5.5h1.36v-.95c0-1.9-.47-2.3-3.28-2.3-1.64 0-4.5.1-6.84.34V6.32c1.42-.42 4.95-1.23 8.62-1.23 6.24 0 9.23 1.74 9.23 7.1v12.1h-7zM25.04 7.58h7.7V.8h-7.7z"/><path fill="#20201E" d="M93.8 6.1h-4.6V.8h15.15v5.3h-4.58v18.24H93.8zM105.9 15.53c0 2.55 1.93 4.42 4.2 4.42 2.27 0 4.2-1.87 4.2-4.45 0-2.57-1.93-4.45-4.2-4.45-2.27 0-4.2 1.88-4.2 4.45v.03zm-5.25-.06c0-4.3 3.07-9.35 9.45-9.35 6.38 0 9.44 5.06 9.44 9.38 0 4.33-3.06 9.38-9.44 9.38-6.38 0-9.45-5.05-9.45-9.38v-.03zM136.38 8.7a6.52 6.52 0 0 0-1.23-1.6c-.98-.85-2.28-1.46-3.92-1.46-2.94 0-6.38 2.2-6.38 6.84 0 4.93 3.47 7.06 6.4 7.06 1.5 0 2.73-.38 3.67-1.05.95-.65 1.62-1.6 1.93-2.74h-6.98v-4.8h13.87c.12 1.68-.07 4.45-1.08 6.74-2.27 5.18-7.5 7.12-11.37 7.12-7.08 0-12.42-5.57-12.42-12.34 0-7.03 5.62-12.1 12.5-12.1 5.6 0 10.4 3.77 11.7 8.32h-6.7zM148.22 15.53c0 2.55 1.93 4.42 4.2 4.42 2.28 0 4.2-1.87 4.2-4.45 0-2.57-1.92-4.45-4.2-4.45-2.27 0-4.2 1.88-4.2 4.45v.03zm-5.24-.06c0-4.3 3.06-9.35 9.44-9.35 6.38 0 9.45 5.06 9.45 9.38 0 4.33-3.07 9.38-9.45 9.38-6.38 0-9.44-5.05-9.44-9.38v-.03z"/></g></svg>